<svg id="Layer_1" data-name="Layer 1" xmlns="http://www.w3.org/2000/svg" viewBox="0 0 90.09 19.43"><defs><style>.cls-1{fill:#b8ecd3;}</style></defs><path class="cls-1" d="M0,19.32,5.24,1.87h5.85l5.24,17.45h-4l-1.57-5.64,2.11,1.59H4.22l.22-3H12L10.7,13.63,9.12,8,8.24,4.39H8.05L7.19,8,4,19.32Z"/><path class="cls-1" d="M18.05,19.32V6.22h3.33l.31,5.13-.21-.78a8.58,8.58,0,0,1,.39-1.87,5.28,5.28,0,0,1,.75-1.46A3,3,0,0,1,25.19,6a3.87,3.87,0,0,1,.48,0,1.91,1.91,0,0,1,.44.08V9.94a6.06,6.06,0,0,0-.79-.15,6.28,6.28,0,0,0-.75,0,5.54,5.54,0,0,0-1.2.12,2.82,2.82,0,0,0-.92.37,2.29,2.29,0,0,0-.66.62v8.46Z"/><path class="cls-1" d="M27.91,19.32V6.22h3.34l.31,5.13-.22-.78a9.2,9.2,0,0,1,.4-1.87,5.26,5.26,0,0,1,.74-1.46A3.08,3.08,0,0,1,35.05,6a3.87,3.87,0,0,1,.48,0,1.91,1.91,0,0,1,.45.08V9.94a6.2,6.2,0,0,0-.8-.15,6,6,0,0,0-.74,0,5.54,5.54,0,0,0-1.2.12,2.82,2.82,0,0,0-.92.37,2.06,2.06,0,0,0-.66.62v8.46Z"/><path class="cls-1" d="M43.64,19.5a6.81,6.81,0,0,1-3.4-.79,5.3,5.3,0,0,1-2.15-2.29,8.31,8.31,0,0,1-.74-3.65,7.93,7.93,0,0,1,.79-3.72,5.33,5.33,0,0,1,2.23-2.3A7,7,0,0,1,43.75,6a6.42,6.42,0,0,1,3.14.7,4.58,4.58,0,0,1,1.94,2.09,7.84,7.84,0,0,1,.66,3.4c0,.17,0,.36,0,.59s0,.46,0,.74H41a4.14,4.14,0,0,0,.79,2.39,2.37,2.37,0,0,0,1.85.74,2.23,2.23,0,0,0,1.49-.43,1.74,1.74,0,0,0,.61-1.14h3.58a4.68,4.68,0,0,1-.83,2.36,4.59,4.59,0,0,1-2,1.55A7.2,7.2,0,0,1,43.64,19.5Zm-1.11-8.11h3.38a2.91,2.91,0,0,0-.62-1.88,2.13,2.13,0,0,0-1.7-.63,2.2,2.2,0,0,0-2,1A5.09,5.09,0,0,0,41,12.59a1.3,1.3,0,0,1,.47-.94A1.93,1.93,0,0,1,42.53,11.39Z"/><path class="cls-1" d="M63.24,19.32V6.22H67v13.1ZM65.12,4.73a2.2,2.2,0,0,1-1.6-.65,2.28,2.28,0,0,1-.66-1.68A2.18,2.18,0,0,1,63.52.75a2.27,2.27,0,0,1,3.18,0,2.18,2.18,0,0,1,.66,1.65,2.28,2.28,0,0,1-.66,1.68A2.19,2.19,0,0,1,65.12,4.73Z"/><path class="cls-1" d="M70.53,19.32v-9a1.51,1.51,0,0,1,.2-.87,1.21,1.21,0,0,1,.6-.36l-.8-2.37V4.67a4.9,4.9,0,0,1,.61-2.56A3.93,3.93,0,0,1,72.78.59,5.08,5.08,0,0,1,75.05.07c.57,0,1,0,1.29,0s.58.07.87.12V3.45a2.57,2.57,0,0,0-.67-.15,6.17,6.17,0,0,0-.9-.06,1.53,1.53,0,0,0-.72.16,1,1,0,0,0-.49.54A2.82,2.82,0,0,0,74.26,5V19.32ZM68.92,9.13V6.22H76.7V9.13Z"/><path class="cls-1" d="M84.23,19.5a6.75,6.75,0,0,1-3.39-.79,5.18,5.18,0,0,1-2.15-2.29,8.17,8.17,0,0,1-.75-3.65,7.93,7.93,0,0,1,.8-3.72A5.28,5.28,0,0,1,81,6.75,7,7,0,0,1,84.34,6a6.37,6.37,0,0,1,3.14.7,4.6,4.6,0,0,1,2,2.09,7.84,7.84,0,0,1,.66,3.4c0,.17,0,.36,0,.59s0,.46,0,.74H81.6a4.13,4.13,0,0,0,.8,2.39,2.34,2.34,0,0,0,1.84.74,2.21,2.21,0,0,0,1.49-.43,1.7,1.7,0,0,0,.61-1.14h3.58A4.52,4.52,0,0,1,87.15,19,7.28,7.28,0,0,1,84.23,19.5Zm-1.1-8.11H86.5a2.9,2.9,0,0,0-.61-1.88,2.16,2.16,0,0,0-1.71-.63,2.2,2.2,0,0,0-2,1,5.19,5.19,0,0,0-.63,2.74,1.27,1.27,0,0,1,.47-.94A1.9,1.9,0,0,1,83.13,11.39Z"/><path class="cls-1" d="M61.13,18.71a7,7,0,0,1-3.69.79,6,6,0,0,1-4.56-1.82A6.49,6.49,0,0,1,51.14,13,7.18,7.18,0,0,1,53,7.75a6.67,6.67,0,0,1,5-1.91,6,6,0,0,1,3.13.61V9.86a4.13,4.13,0,0,0-2.64-.94,3.37,3.37,0,0,0-2.57,1,3.93,3.93,0,0,0-1,2.79,3.89,3.89,0,0,0,.91,2.72,3.2,3.2,0,0,0,2.49,1,4.76,4.76,0,0,0,2.76-.94Z"/></svg>