<svg id="Layer_1" data-name="Layer 1" xmlns="http://www.w3.org/2000/svg" viewBox="0 0 101 101"><defs><style>.cls-1,.cls-3{fill:none;stroke:#fff;stroke-linecap:round;stroke-width:8px;}.cls-1{stroke-miterlimit:10;}.cls-2{fill:#fff;}.cls-3{stroke-linejoin:round;}</style></defs><path class="cls-1" d="M8,54.54c11,10,19.34,11,25,11,15.06.09,23.92-16.79,40-15,9,1,14.56,5.45,20,10"/><circle class="cls-2" cx="88.75" cy="5.75" r="3.25"/><circle class="cls-2" cx="85.31" cy="15.31" r="2.69"/><path class="cls-1" d="M8.67,81.4c11,10,19.34,11,25,11,15.06.09,23.92-16.79,40-15,9,1,14.56,5.44,20,10"/><path class="cls-3" d="M8.33,27.68c11,10,19.35,11,25,11C48.4,38.77,60.3,10,77.3,11c-1,3-18,25,16,22.68"/></svg>